<svg width="51" height="51" viewBox="0 0 51 51" fill="none" xmlns="http://www.w3.org/2000/svg">
<path d="M40.4152 37.4456C40.2214 37.2519 40.2375 36.9255 40.4451 36.7179C48.1858 28.9772 48.6041 16.8453 41.3794 9.6206C34.1547 2.3959 22.0229 2.81424 14.2821 10.555C14.0745 10.7626 13.7481 10.7786 13.5544 10.5849L11.4323 8.4628C11.2358 8.26629 11.2431 7.93711 11.4537 7.72656C20.8681 -1.68786 35.6231 -2.19666 44.4099 6.59014C53.1967 15.3769 52.6879 30.1319 43.2735 39.5464C43.0629 39.7569 42.7338 39.7642 42.5372 39.5677L40.4152 37.4456Z" fill="url(#paint0_linear_841_282)"/>
<path d="M37.5857 34.6162C37.7828 34.8133 38.1126 34.8078 38.3237 34.5966C44.8092 28.1111 45.1597 17.9466 39.1066 11.8934C33.0535 5.84031 22.8889 6.19081 16.4034 12.6763C16.1923 12.8875 16.1867 13.2172 16.3838 13.4143L18.5069 15.5374C18.6998 15.7303 19.0253 15.7113 19.2319 15.5047C24.0437 10.6929 31.5851 10.4329 36.0761 14.9239C40.5672 19.4149 40.3071 26.9564 35.4953 31.7682C35.2887 31.9748 35.2698 32.3003 35.4626 32.4931L37.5857 34.6162Z" fill="url(#paint1_linear_841_282)"/>
<path d="M32.6312 29.6617C32.8298 29.8603 33.1612 29.8597 33.374 29.6469C36.9305 26.0903 37.1228 20.5162 33.8033 17.1967C30.4838 13.8773 24.9097 14.0695 21.3532 17.6261C21.1404 17.8388 21.1397 18.1702 21.3383 18.3688L23.4679 20.4984C23.657 20.6875 23.9791 20.657 24.1816 20.4545C26.0645 18.5716 29.0155 18.4698 30.7728 20.2272C32.5302 21.9846 32.4284 24.9356 30.5456 26.8184C30.343 27.021 30.3126 27.3431 30.5016 27.5321L32.6312 29.6617Z" fill="url(#paint2_linear_841_282)"/>
<path d="M13.0447 14.6208C11.8731 13.4493 9.90576 13.5171 8.65051 14.7724L1.07436 22.3485C-0.180894 23.6038 -0.248733 25.5711 0.922839 26.7427C2.09441 27.9143 4.06175 27.8464 5.317 26.5912L12.8931 19.015C14.1484 17.7598 14.2162 15.7924 13.0447 14.6208Z" fill="url(#paint3_linear_841_282)"/>
<path d="M20.8228 22.399C19.6513 21.2275 17.6839 21.2953 16.4287 22.5505L8.85254 30.1267C7.59728 31.3819 7.52944 33.3493 8.70101 34.5209C9.87259 35.6924 11.8399 35.6246 13.0952 34.3693L20.6713 26.7932C21.9266 25.5379 21.9944 23.5706 20.8228 22.399Z" fill="url(#paint4_linear_841_282)"/>
<path d="M28.601 30.1772C27.4294 29.0056 25.4621 29.0735 24.2069 30.3287L16.6307 37.9049C15.3755 39.1601 15.3076 41.1275 16.4792 42.299C17.6508 43.4706 19.6181 43.4028 20.8734 42.1475L28.4495 34.5714C29.7047 33.3161 29.7726 31.3488 28.601 30.1772Z" fill="url(#paint5_linear_841_282)"/>
<path d="M36.3792 37.9554C35.2076 36.7838 33.2403 36.8516 31.985 38.1069L24.4089 45.683C23.1536 46.9383 23.0858 48.9056 24.2574 50.0772C25.4289 51.2488 27.3963 51.1809 28.6515 49.9257L36.2277 42.3495C37.4829 41.0943 37.5508 39.1269 36.3792 37.9554Z" fill="url(#paint6_linear_841_282)"/>
<defs>
<linearGradient id="paint0_linear_841_282" x1="12.5901" y1="38.4099" x2="44.4099" y2="6.59014" gradientUnits="userSpaceOnUse">
<stop stop-color="#48A398"/>
<stop offset="0.249994" stop-color="#317068"/>
<stop offset="0.530001" stop-color="#306C64"/>
<stop offset="1" stop-color="#1B3D39"/>
</linearGradient>
<linearGradient id="paint1_linear_841_282" x1="12.5901" y1="38.4099" x2="44.4099" y2="6.59014" gradientUnits="userSpaceOnUse">
<stop stop-color="#48A398"/>
<stop offset="0.249994" stop-color="#317068"/>
<stop offset="0.530001" stop-color="#306C64"/>
<stop offset="1" stop-color="#1B3D39"/>
</linearGradient>
<linearGradient id="paint2_linear_841_282" x1="12.5901" y1="38.4099" x2="44.4099" y2="6.59014" gradientUnits="userSpaceOnUse">
<stop stop-color="#48A398"/>
<stop offset="0.249994" stop-color="#317068"/>
<stop offset="0.530001" stop-color="#306C64"/>
<stop offset="1" stop-color="#1B3D39"/>
</linearGradient>
<linearGradient id="paint3_linear_841_282" x1="12.5901" y1="38.4099" x2="44.4099" y2="6.59014" gradientUnits="userSpaceOnUse">
<stop stop-color="#48A398"/>
<stop offset="0.249994" stop-color="#317068"/>
<stop offset="0.530001" stop-color="#306C64"/>
<stop offset="1" stop-color="#1B3D39"/>
</linearGradient>
<linearGradient id="paint4_linear_841_282" x1="12.5901" y1="38.4099" x2="44.4099" y2="6.59014" gradientUnits="userSpaceOnUse">
<stop stop-color="#48A398"/>
<stop offset="0.249994" stop-color="#317068"/>
<stop offset="0.530001" stop-color="#306C64"/>
<stop offset="1" stop-color="#1B3D39"/>
</linearGradient>
<linearGradient id="paint5_linear_841_282" x1="12.5901" y1="38.4099" x2="44.4099" y2="6.59014" gradientUnits="userSpaceOnUse">
<stop stop-color="#48A398"/>
<stop offset="0.249994" stop-color="#317068"/>
<stop offset="0.530001" stop-color="#306C64"/>
<stop offset="1" stop-color="#1B3D39"/>
</linearGradient>
<linearGradient id="paint6_linear_841_282" x1="12.5901" y1="38.4099" x2="44.4099" y2="6.59014" gradientUnits="userSpaceOnUse">
<stop stop-color="#48A398"/>
<stop offset="0.249994" stop-color="#317068"/>
<stop offset="0.530001" stop-color="#306C64"/>
<stop offset="1" stop-color="#1B3D39"/>
</linearGradient>
</defs>
</svg>
